<?xml version="1.0" encoding="UTF-8" standalone="no"?>
<!DOCTYPE svg PUBLIC "-//W3C//DTD SVG 1.1//EN" "http://www.w3.org/Graphics/SVG/1.1/DTD/svg11.dtd">
<svg xmlns="http://www.w3.org/2000/svg" xmlns:xl="http://www.w3.org/1999/xlink" version="1.1" viewBox="179 52 84 98" width="7pc" height="98pt" xmlns:dc="http://purl.org/dc/elements/1.1/"><metadata> Produced by OmniGraffle 6.6.2 <dc:date>2017-06-30 07:58:50 +0000</dc:date></metadata><defs/><g stroke="none" stroke-opacity="1" stroke-dasharray="none" fill="none" fill-opacity="1"><title>pocketgopher</title><g><title>Layer 1</title><path d="M 199.49346 66.426686 C 199.49346 66.426686 198.44691 66.105378 198.77089 65.174233 C 199.09487 64.24309 200.40871 64.788863 200.40871 64.788863 L 200.31237 64.788863 Z" fill="black"/><path d="M 199.49346 66.426686 C 199.49346 66.426686 198.44691 66.105378 198.77089 65.174233 C 199.09487 64.24309 200.40871 64.788863 200.40871 64.788863 L 200.31237 64.788863 Z" stroke="black" stroke-linecap="round" stroke-linejoin="round" stroke-width="1"/><path d="M 245.36206 72.83386 C 246.92844 71.810206 251.68122 68.24355 249.03346 64.13742 C 246.04755 59.506885 241.1338 62.60117 240.64712 62.924114 C 242.6628 64.831877 244.28784 68.573005 245.36207 72.833856 Z" stroke="black" stroke-linecap="round" stroke-linejoin="round" stroke-width="1"/><path d="M 243.11138 66.341126 C 243.11138 66.341126 244.0089 65.71425 244.54319 66.54282 C 245.07748 67.371393 243.83852 68.0707 243.83852 68.0707 L 243.89783 67.99478 Z" fill="black"/><path d="M 243.11138 66.341126 C 243.11138 66.341126 244.0089 65.71425 244.54319 66.54282 C 245.07748 67.371393 243.83852 68.0707 243.83852 68.0707 L 243.89783 67.99478 Z" stroke="black" stroke-linecap="round" stroke-linejoin="round" stroke-width="1"/><path d="M 203.91606 61.44228 C 202.74837 61.003556 196.19137 58.793964 194.4567 63.779527 C 192.80195 68.53537 197.22294 70.58773 198.41929 71.046803 C 199.49872 67.070427 201.10177 63.695863 203.34237 61.882195 L 203.52756 61.51181 L 203.82272 61.51181 C 203.85383 61.488517 203.88494 61.46534 203.91605 61.442276 Z" stroke="black" stroke-linecap="round" stroke-linejoin="round" stroke-width="1"/><path d="M 246.3307 92.12598 C 249.27382 85.15703 245.28132 66.417752 239.61202 62.372503 C 233.94274 58.327232 227.67912 57.10236 221.5935 56.97638 C 215.50789 56.8504 209.40627 57.15326 203.45177 61.795277 C 197.49725 66.437273 193.75 88.375 196.44094 92.12598 C 196.55882 92.290296 246.29182 92.21805 246.3307 92.12598 Z" stroke="black" stroke-linecap="round" stroke-linejoin="round" stroke-width="1"/><circle cx="212.4567" cy="68.456692" r="7.511823" stroke="black" stroke-linecap="round" stroke-linejoin="round" stroke-width=".5"/><circle cx="212.4567" cy="72.578" r="2.2787929" fill="black"/><circle cx="212.4567" cy="72.578" r="2.2787929" stroke="black" stroke-linecap="round" stroke-linejoin="round" stroke-width=".75"/><circle cx="211.17003" cy="73.297734" r=".42519752" fill="white"/><circle cx="211.17003" cy="73.297734" r=".42519752" stroke="white" stroke-linecap="round" stroke-linejoin="round" stroke-width=".5"/><path d="M 218.55118 81.070865 C 218.55118 81.070865 217.80021 84.883863 218.26772 85.6063 C 218.73522 86.328734 219.68504 86.173227 219.68504 86.173227 C 219.68504 86.173227 221.11271 86.38386 221.38583 85.322834 C 221.65894 84.261804 221.38583 80.22047 221.38583 80.22047 Z" stroke="black" stroke-linecap="round" stroke-linejoin="round" stroke-width=".5"/><path d="M 224.46324 81.35433 C 224.46324 81.35433 225.21421 85.167326 224.7467 85.88976 C 224.2792 86.612197 223.32938 86.45669 223.32938 86.45669 C 223.32938 86.45669 221.90171 86.667326 221.6286 85.606297 C 221.35548 84.54527 221.6286 80.503935 221.6286 80.503935 Z" stroke="black" stroke-linecap="round" stroke-linejoin="round" stroke-width=".5"/><path d="M 219.11811 75.968503 C 218.35728 76.21161 216.36271 77.071363 215.71654 78.23622 C 215.07036 79.401077 215.23771 82.133863 218.55118 81.070865 C 221.86465 80.00787 220.93702 80.196363 221.66929 80.22047 C 222.40157 80.24458 222.64959 80.949797 224.7874 81.35433 C 226.92521 81.758863 227.63138 80.226864 227.62205 79.086613 C 227.61271 77.946363 226.56202 76.758863 225.35433 76.53543 C 224.14665 76.312 225.28003 76.53543 225.28003 76.53543 C 225.28003 76.53543 219.87895 75.7254 219.11811 75.968503 Z" stroke="black" stroke-linecap="round" stroke-linejoin="round" stroke-width=".5"/><path d="M 219.14024 75.68851 C 218.875 76.4375 220.65795 77.353395 221.66929 77.385826 C 222.68063 77.418257 223.99462 77.13039 224.50394 76.251968 C 225.01326 75.373545 224.34301 74.218502 221.95276 73.98425 C 219.5625 73.75 219.40548 74.939522 219.14024 75.68851 Z" fill="black"/><path d="M 219.14024 75.68851 C 218.875 76.4375 220.65795 77.353395 221.66929 77.385826 C 222.68063 77.418257 223.99462 77.13039 224.50394 76.251968 C 225.01326 75.373545 224.34301 74.218502 221.95276 73.98425 C 219.5625 73.75 219.40548 74.939522 219.14024 75.68851 Z" stroke="black" stroke-linecap="round" stroke-linejoin="round" stroke-width=".75"/><path d="M 184.25197 110.55512 C 184.25197 129.341504 200.75048 144.57086 221.10236 144.57086 C 241.45425 144.57086 257.95276 129.3415 257.95276 110.555116 L 257.95276 92.125984 L 184.25197 92.125984 Z" stroke="black" stroke-linecap="round" stroke-linejoin="bevel" stroke-width="1"/><path d="M 189.23414 111.60877 C 189.23414 127.85524 203.50206 141.02559 221.10236 141.02559 C 238.70267 141.02559 252.97058 127.85524 252.97058 111.60877 L 252.97058 95.67126 L 189.23414 95.67126 Z" stroke="black" stroke-linecap="round" stroke-linejoin="round" stroke-width="1" stroke-dasharray="4,4"/><circle cx="232.01648" cy="68.456692" r="7.511823" stroke="black" stroke-linecap="round" stroke-linejoin="round" stroke-width=".5"/><circle cx="232.01648" cy="72.578" r="2.2787929" fill="black"/><circle cx="232.01648" cy="72.578" r="2.2787929" stroke="black" stroke-linecap="round" stroke-linejoin="round" stroke-width=".75"/><circle cx="230.72982" cy="73.297734" r=".42519752" fill="white"/><circle cx="230.72982" cy="73.297734" r=".42519752" stroke="white" stroke-linecap="round" stroke-linejoin="round" stroke-width=".5"/></g></g></svg>
